<?xml version="1.0" standalone="no"?>
<!DOCTYPE svg PUBLIC "-//W3C//DTD SVG 20010904//EN"
 "http://www.w3.org/TR/2001/REC-SVG-20010904/DTD/svg10.dtd">
<svg version="1.0" xmlns="http://www.w3.org/2000/svg"
 width="300.000000pt" height="300.000000pt" viewBox="0 0 500.000000 500.000000"
 preserveAspectRatio="xMidYMid meet">

<g transform="translate(0.000000,500.000000) scale(0.100000,-0.100000)"
fill="#000000" stroke="none">
<path d="M1697 2773 c-3 -54 -15 -134 -27 -177 -11 -44 -18 -81 -16 -84 8 -7
46 132 55 199 7 52 9 56 10 23 1 -45 -30 -178 -52 -219 l-13 -26 -11 23 c-7
13 -21 75 -33 138 -27 142 -49 197 -84 206 -14 3 -30 3 -35 -1 -16 -9 -13 -79
8 -185 10 -52 22 -115 26 -140 l6 -45 -18 35 c-16 31 -22 35 -58 34 -22 -1
-89 -20 -150 -43 -136 -52 -129 -51 -133 -20 -2 20 3 28 25 38 50 23 158 58
204 66 80 13 97 35 63 84 -15 21 -22 23 -74 18 -32 -3 -96 -21 -144 -40 -86
-35 -86 -35 -86 -12 0 25 19 34 193 86 94 28 107 35 107 54 0 13 -7 28 -16 36
-13 11 -40 7 -167 -25 -84 -21 -164 -45 -179 -52 -35 -18 -52 -48 -39 -71 5
-10 15 -85 22 -167 14 -164 27 -196 77 -196 21 0 24 2 12 10 -9 6 -10 10 -3
10 6 0 20 3 30 6 15 5 16 4 3 -6 -13 -10 -12 -11 5 -4 114 42 244 84 261 84
11 0 29 6 40 14 18 13 21 11 44 -37 36 -74 57 -74 129 0 36 37 63 76 75 108
10 28 22 54 26 59 5 4 11 -37 15 -93 9 -115 26 -151 73 -151 21 0 24 2 12 10
-9 6 -10 10 -3 10 6 0 20 3 30 6 15 5 16 4 3 -6 -13 -10 -12 -11 5 -5 11 4 61
22 111 40 50 19 114 38 142 43 l52 9 0 -37 c0 -51 22 -69 58 -48 l27 17 5 161
5 162 72 -129 c39 -71 75 -142 79 -159 9 -38 22 -54 44 -54 24 0 39 20 45 61
4 27 3 30 -5 14 -7 -14 -8 5 -4 65 4 55 0 122 -10 189 -9 58 -16 106 -16 109
0 2 8 -6 19 -19 15 -19 30 -24 88 -27 l70 -4 -5 -158 c-5 -180 -2 -206 34
-222 23 -11 28 -9 41 7 7 11 17 19 21 17 4 -1 8 81 10 183 l2 184 50 7 c66 9
64 10 74 -25 6 -22 5 -44 -4 -71 -12 -37 -12 -42 8 -63 17 -17 24 -45 33 -122
13 -107 24 -131 58 -120 32 10 45 68 34 154 l-10 72 113 -2 112 -2 12 -46 c6
-25 20 -55 30 -66 11 -11 34 -37 51 -57 34 -41 91 -65 132 -54 33 8 85 52 108
91 l19 30 0 -58 c0 -70 7 -74 91 -58 34 7 98 13 144 13 46 0 89 4 95 8 16 10
5 73 -16 90 -10 9 -41 11 -108 7 l-93 -5 -8 131 c-7 138 -21 242 -25 197 -2
-20 -4 -17 -12 15 -6 22 -16 43 -22 47 -17 11 -64 9 -71 -3 -4 -5 -17 -14 -29
-19 -22 -8 -23 -15 -30 -157 -4 -81 -9 -158 -12 -169 -7 -28 -49 -47 -73 -34
-30 16 -52 126 -50 253 1 96 -1 112 -17 124 -27 19 -52 16 -77 -11 l-22 -23
-135 17 c-153 20 -190 28 -190 42 0 5 -15 6 -32 3 -18 -3 -116 -10 -217 -15
-202 -11 -221 -17 -215 -68 3 -17 -1 -12 -9 13 -14 44 -44 58 -67 30 -11 -13
-10 -34 8 -128 12 -62 22 -117 22 -122 0 -6 -23 33 -51 85 -57 108 -89 153
-126 177 -25 16 -26 16 -44 -6 -16 -20 -19 -41 -19 -135 0 -61 -4 -116 -8
-122 -4 -6 -23 -13 -43 -17 -19 -3 -85 -24 -145 -47 -135 -51 -128 -50 -132
-19 -2 20 3 28 25 38 52 25 163 60 209 67 26 4 55 15 66 26 18 18 18 19 -3 50
-21 29 -24 30 -79 25 -32 -3 -96 -21 -144 -40 -86 -35 -86 -35 -86 -12 0 25
19 34 193 86 94 28 107 35 107 54 0 13 -7 29 -16 36 -14 11 -41 7 -175 -27
l-159 -41 0 28 c0 34 -19 79 -34 79 -6 0 -21 3 -33 6 -19 5 -22 1 -26 -33 l-4
-38 -1 38 c-4 73 -19 35 -25 -60z m1332 51 c10 -9 -35 -3 -49 6 -11 8 -7 9 15
4 17 -4 32 -8 34 -10z m-522 -96 c-3 -8 -6 -5 -6 6 -1 11 2 17 5 13 3 -3 4
-12 1 -19z m96 15 c-7 -2 -19 -2 -25 0 -7 3 -2 5 12 5 14 0 19 -2 13 -5z m784
-105 c-2 -24 -4 -7 -4 37 0 44 2 63 4 43 2 -21 2 -57 0 -80z m-242 76 c66 -8
121 -17 123 -19 2 -2 1 -12 -2 -22 -5 -16 -17 -18 -125 -15 -113 3 -119 4
-125 25 -8 31 -7 47 2 47 4 0 62 -7 127 -16z m-628 -46 c-3 -7 -5 -2 -5 12 0
14 2 19 5 13 2 -7 2 -19 0 -25z m10 -70 c-3 -7 -5 -2 -5 12 0 14 2 19 5 13 2
-7 2 -19 0 -25z m-1276 -34 c-30 -13 -56 -22 -59 -19 -6 6 81 43 103 44 6 0
-14 -11 -44 -25z m710 0 c-30 -13 -56 -22 -59 -19 -6 6 81 43 103 44 6 0 -14
-11 -44 -25z m576 -41 c-3 -10 -5 -4 -5 12 0 17 2 24 5 18 2 -7 2 -21 0 -30z
m-240 -135 c-2 -13 -4 -3 -4 22 0 25 2 35 4 23 2 -13 2 -33 0 -45z"/>
<path d="M1241 2814 c-51 -14 -77 -25 -55 -24 26 2 155 38 134 38 -14 1 -50
-6 -79 -14z"/>
<path d="M1951 2814 c-51 -14 -77 -25 -55 -24 26 2 155 38 134 38 -14 1 -50
-6 -79 -14z"/>
<path d="M1130 2780 c-18 -12 -2 -12 25 0 13 6 15 9 5 9 -8 0 -22 -4 -30 -9z"/>
<path d="M1840 2780 c-18 -12 -2 -12 25 0 13 6 15 9 5 9 -8 0 -22 -4 -30 -9z"/>
<path d="M3765 2330 c-53 -6 -47 -7 48 -8 66 -1 107 2 107 8 0 11 -58 11 -155
0z"/>
<path d="M3678 2313 c7 -3 16 -2 19 1 4 3 -2 6 -13 5 -11 0 -14 -3 -6 -6z"/>
<path d="M1797 2253 c-4 -3 -7 -21 -7 -40 0 -32 1 -33 40 -33 45 0 54 16 13
23 l-28 4 28 2 c15 0 27 5 27 10 0 5 -12 12 -27 14 l-28 4 28 2 c15 0 27 6 27
11 0 11 -63 14 -73 3z"/>
<path d="M1880 2255 c0 -19 37 -75 50 -75 17 0 55 68 45 79 -4 3 -17 -7 -29
-22 l-22 -28 -12 26 c-10 21 -32 35 -32 20z"/>
<path d="M1990 2220 l0 -40 42 0 c44 0 43 15 -2 23 -24 4 -24 4 3 6 15 0 27 5
27 10 0 5 -12 12 -27 14 -26 4 -25 4 5 6 44 1 31 21 -14 21 -33 0 -34 -1 -34
-40z"/>
<path d="M2080 2220 c0 -22 5 -40 10 -40 6 0 10 10 10 22 l0 21 23 -21 c34
-32 57 -29 57 8 0 20 5 30 15 30 10 0 15 -10 15 -30 0 -20 5 -30 15 -30 10 0
15 10 15 30 0 20 5 30 15 30 8 0 15 -4 15 -10 0 -5 15 -14 33 -19 l32 -9 -34
-1 c-25 -1 -32 -4 -24 -12 17 -17 77 -7 81 14 3 13 -5 19 -30 24 l-33 7 35 6
35 6 -29 9 c-18 5 -36 4 -47 -3 -12 -8 -20 -8 -24 -2 -4 6 -31 10 -61 9 -51
-2 -54 -4 -54 -28 l-1 -26 -20 28 c-30 40 -49 35 -49 -13z"/>
<path d="M2397 2253 c-4 -3 -7 -21 -7 -40 0 -23 5 -33 15 -33 8 0 15 5 15 10
0 6 8 10 18 10 10 0 27 7 38 15 19 15 19 15 0 30 -20 15 -67 20 -79 8z m63
-23 c0 -5 -9 -10 -20 -10 -11 0 -20 5 -20 10 0 6 9 10 20 10 11 0 20 -4 20
-10z"/>
<path d="M2500 2220 l0 -40 89 2 89 3 -19 38 c-24 46 -44 47 -65 4 -14 -28
-20 -33 -45 -29 -24 4 -29 9 -29 33 0 16 -4 29 -10 29 -5 0 -10 -18 -10 -40z
m135 0 c3 -5 -1 -10 -10 -10 -9 0 -13 5 -10 10 3 6 8 10 10 10 2 0 7 -4 10
-10z"/>
<path d="M2680 2250 c0 -6 7 -10 15 -10 10 0 15 -10 15 -30 0 -20 5 -30 15
-30 10 0 15 10 15 30 0 20 5 30 15 30 10 0 15 -10 15 -30 0 -20 5 -30 15 -30
8 0 15 6 15 14 0 8 10 17 23 19 l22 4 -22 2 c-31 2 -29 21 2 21 14 0 25 4 25
10 0 5 -38 9 -85 9 -47 0 -85 -4 -85 -9z"/>
<path d="M2870 2240 c-35 -35 5 -71 65 -56 48 12 24 76 -29 76 -9 0 -25 -9
-36 -20z m65 -20 c0 -18 -33 -26 -47 -12 -6 6 -7 15 -3 22 10 16 50 8 50 -10z"/>
<path d="M2977 2253 c-4 -3 -7 -21 -7 -40 0 -23 5 -33 15 -33 8 0 15 7 15 15
0 8 4 15 9 15 5 0 14 -7 21 -15 7 -8 19 -15 27 -15 12 0 13 3 4 13 -8 10 -7
17 2 26 9 10 8 15 -7 27 -20 14 -68 19 -79 7z m63 -23 c0 -5 -9 -10 -20 -10
-11 0 -20 5 -20 10 0 6 9 10 20 10 11 0 20 -4 20 -10z"/>
<path d="M3080 2220 c0 -29 4 -40 15 -40 8 0 15 8 15 18 1 16 1 16 11 0 14
-25 34 -22 47 5 l11 22 0 -22 c1 -14 7 -23 17 -23 12 0 14 9 12 37 -4 47 -30
56 -51 18 l-14 -27 -16 26 c-27 40 -47 34 -47 -14z"/>
</g>
</svg>
