<?xml version="1.0" standalone="no"?>
<!DOCTYPE svg PUBLIC "-//W3C//DTD SVG 20010904//EN"
 "http://www.w3.org/TR/2001/REC-SVG-20010904/DTD/svg10.dtd">
<svg version="1.0" xmlns="http://www.w3.org/2000/svg"
 width="500.000000pt" height="500.000000pt" viewBox="0 0 500.000000 500.000000"
 preserveAspectRatio="xMidYMid meet">

<g transform="translate(0.000000,500.000000) scale(0.100000,-0.100000)"
fill="#000000" stroke="none">
<path d="M0 2500 l0 -2500 2500 0 2500 0 0 2500 0 2500 -2500 0 -2500 0 0
-2500z m1785 360 c17 -6 26 -20 31 -45 6 -31 10 -36 28 -30 85 25 179 46 192
43 9 -2 -36 -16 -100 -32 -64 -16 -116 -33 -116 -37 0 -5 17 -2 38 5 20 7 92
25 159 41 101 23 125 26 138 15 23 -19 19 -57 -7 -65 -13 -3 -80 -24 -150 -47
-109 -34 -128 -43 -128 -60 0 -23 -8 -24 120 20 127 44 144 46 179 16 l30 -25
-5 63 c-5 59 -3 65 24 97 30 35 30 35 56 17 34 -22 79 -85 135 -189 24 -45 41
-71 38 -57 -33 162 -40 220 -27 234 17 21 60 21 60 0 0 -15 2 -15 25 0 13 9
39 16 57 17 31 1 31 1 8 9 -15 4 4 6 45 3 39 -3 131 0 205 6 79 6 136 6 138 1
4 -12 82 -27 219 -43 110 -12 111 -12 131 10 23 26 64 30 82 8 8 -9 13 -61 14
-147 4 -199 40 -275 102 -213 19 19 24 35 24 73 0 27 3 97 7 156 6 99 8 108
29 116 12 5 25 14 29 19 14 24 85 9 85 -18 0 -12 2 -13 9 -3 7 11 10 10 15 -3
6 -17 24 -206 29 -305 l2 -55 96 3 c108 4 121 -2 123 -66 l1 -37 -125 -8 c-69
-5 -143 -9 -165 -10 l-40 -2 -5 56 -5 57 -23 -37 c-44 -69 -104 -95 -169 -71
-47 18 -130 115 -143 169 l-11 47 -111 3 -110 2 7 -81 c8 -89 -4 -135 -37
-145 -34 -11 -45 12 -58 120 -10 85 -16 107 -31 116 -21 11 -26 58 -8 76 7 7
8 26 4 52 -7 45 -13 47 -87 35 l-38 -7 -2 -183 c-2 -103 -7 -184 -12 -183 -5
0 -13 -6 -18 -15 -13 -24 -45 -19 -64 9 -13 20 -15 51 -13 192 l3 168 -68 5
c-57 4 -71 9 -88 30 l-21 25 7 -30 c14 -70 25 -167 32 -271 5 -96 4 -112 -11
-127 -33 -34 -67 -18 -81 38 -4 17 -39 87 -78 157 l-71 128 -3 -159 c-2 -158
-3 -159 -28 -176 -37 -24 -64 -11 -64 31 0 22 -6 37 -16 41 -20 8 -128 -22
-233 -63 -47 -19 -97 -34 -111 -34 -40 0 -57 40 -65 155 l-8 100 -34 -72 c-50
-105 -134 -182 -173 -158 -7 4 -22 29 -34 56 -15 31 -26 45 -33 38 -5 -5 -50
-21 -100 -34 -49 -14 -123 -38 -163 -55 -138 -57 -151 -44 -170 165 -7 77 -17
148 -22 158 -6 13 -6 28 2 47 14 34 63 52 252 96 97 23 120 25 132 14 24 -19
20 -57 -6 -65 -13 -3 -80 -24 -150 -47 -105 -33 -128 -43 -128 -59 0 -24 7
-24 67 2 26 11 81 29 122 40 67 17 77 18 97 4 34 -22 46 -49 31 -69 -7 -9 -53
-27 -107 -40 -93 -24 -184 -59 -194 -75 -3 -4 -3 -16 0 -27 5 -19 11 -18 117
24 136 54 180 62 207 37 19 -17 20 -17 20 1 0 10 -9 62 -20 114 -22 105 -26
185 -9 195 18 12 56 -4 73 -30 9 -13 29 -88 44 -165 15 -77 30 -140 33 -140
17 0 59 208 59 296 0 50 1 51 31 52 17 0 42 -3 54 -8z m-560 -64 c-66 -18
-129 -36 -140 -40 -11 -3 -1 3 23 14 50 24 175 59 212 59 14 0 -29 -15 -95
-33z m2700 -466 c4 -6 -29 -10 -93 -10 -55 0 -115 -3 -133 -6 -19 -4 -31 -3
-27 1 17 18 243 32 253 15z m-2077 -87 c-22 -3 -28 -10 -28 -28 0 -18 6 -25
28 -28 22 -3 20 -4 -10 -6 -37 -1 -38 0 -38 34 0 34 1 35 38 34 30 -2 32 -3
10 -6z m67 -20 c6 -27 7 -27 20 -9 8 10 16 24 18 30 2 6 7 8 11 4 11 -9 -22
-68 -37 -68 -7 0 -21 16 -30 35 -13 28 -14 35 -3 35 8 0 17 -12 21 -27z m124
20 c-20 -3 -26 -10 -26 -28 0 -18 6 -25 26 -28 19 -3 17 -4 -11 -6 -37 -1 -38
0 -38 34 0 34 1 35 38 34 28 -2 30 -3 11 -6z m88 -15 l23 -21 0 21 c0 12 5 22
10 22 6 0 10 -16 10 -35 0 -42 -13 -44 -45 -7 l-24 27 -1 -27 c0 -16 -4 -28
-10 -28 -5 0 -10 16 -10 35 0 41 14 44 47 13z m121 11 c-10 -5 -18 -21 -18
-34 0 -14 -4 -25 -10 -25 -5 0 -10 13 -10 29 0 20 -6 31 -17 34 -10 3 2 5 27
6 35 0 41 -2 28 -10z m57 1 c-4 -6 7 -13 24 -16 33 -7 41 -28 15 -38 -24 -9
-52 -7 -59 4 -4 7 2 9 18 5 14 -4 27 -2 31 3 3 5 -8 12 -24 16 -31 6 -43 36
-14 36 8 0 12 -5 9 -10z m42 4 c-3 -3 -12 -4 -19 -1 -8 3 -5 6 6 6 11 1 17 -2
13 -5z m133 -14 c0 -16 -7 -20 -30 -20 -20 0 -30 -5 -30 -15 0 -8 -4 -15 -10
-15 -5 0 -10 16 -10 35 0 34 1 35 40 35 33 0 40 -3 40 -20z m40 -5 c0 -20 5
-25 25 -25 14 0 25 -4 25 -10 0 -5 -16 -10 -35 -10 -33 0 -35 2 -35 35 0 19 5
35 10 35 6 0 10 -11 10 -25z m135 -6 c9 -17 14 -33 11 -36 -5 -6 -37 22 -36
32 1 21 -1 25 -11 20 -5 -4 -8 -12 -6 -18 4 -13 -21 -42 -29 -34 -10 9 26 67
41 67 8 0 22 -14 30 -31z m93 24 c-12 -3 -18 -14 -18 -34 0 -16 -4 -29 -10
-29 -5 0 -10 13 -10 29 0 20 -6 31 -17 34 -10 3 2 5 27 5 25 0 37 -2 28 -5z
m87 0 c-45 -10 -50 -16 -20 -23 24 -6 26 -8 7 -9 -12 0 -25 -8 -28 -16 -11
-27 -24 -16 -24 20 0 35 0 35 43 34 23 -1 33 -3 22 -6z m123 -20 c5 -31 -37
-51 -73 -35 -24 11 -33 40 -18 56 4 4 25 6 48 4 33 -2 41 -7 43 -25z m99 5
c-4 -12 -1 -28 5 -35 6 -8 7 -13 0 -13 -5 0 -15 7 -22 15 -7 8 -19 15 -26 15
-8 0 -14 -7 -14 -15 0 -8 -4 -15 -10 -15 -5 0 -10 16 -10 35 0 34 1 35 41 35
38 0 41 -2 36 -22z m72 -5 l13 -28 14 28 c21 39 44 35 44 -8 0 -19 -4 -35 -10
-35 -5 0 -10 12 -10 28 l-1 27 -15 -27 c-8 -16 -18 -28 -23 -28 -4 0 -14 12
-21 28 l-14 27 -4 -27 c-5 -40 -22 -34 -22 7 0 27 4 35 18 35 11 0 24 -12 31
-27z"/>
<path d="M3692 2780 c0 -14 2 -19 5 -12 2 6 2 18 0 25 -3 6 -5 1 -5 -13z"/>
<path d="M1712 2720 c0 -19 2 -27 5 -17 2 9 2 25 0 35 -3 9 -5 1 -5 -18z"/>
<path d="M3383 2685 c0 -38 2 -53 4 -32 2 20 2 52 0 70 -2 17 -4 1 -4 -38z"/>
<path d="M3010 2719 c0 -8 3 -24 6 -36 6 -21 12 -22 124 -25 116 -3 119 -3
123 20 2 12 1 22 -2 22 -16 0 -190 21 -218 26 -24 5 -33 3 -33 -7z"/>
<path d="M1701 2654 c0 -11 3 -14 6 -6 3 7 2 16 -1 19 -3 4 -6 -2 -5 -13z"/>
<path d="M1691 2614 c0 -11 3 -14 6 -6 3 7 2 16 -1 19 -3 4 -6 -2 -5 -13z"/>
<path d="M2184 2620 c-6 -6 -53 -22 -105 -35 -92 -23 -183 -58 -193 -74 -3 -4
-3 -16 0 -27 5 -19 11 -18 117 24 62 25 131 47 155 50 40 4 42 6 42 38 0 37
-1 39 -16 24z"/>
<path d="M1681 2583 c-1 -6 -4 -20 -7 -30 -5 -17 -5 -17 6 0 6 10 9 23 6 30
-3 9 -5 9 -5 0z"/>
<path d="M1210 2560 c-18 -12 -2 -12 25 0 13 6 15 9 5 9 -8 0 -22 -4 -30 -9z"/>
<path d="M1920 2560 c-18 -12 -2 -12 25 0 13 6 15 9 5 9 -8 0 -22 -4 -30 -9z"/>
<path d="M2292 2410 c0 -14 2 -19 5 -12 2 6 2 18 0 25 -3 6 -5 1 -5 -13z"/>
<path d="M2420 2230 c0 -5 9 -10 20 -10 11 0 20 5 20 10 0 6 -9 10 -20 10 -11
0 -20 -4 -20 -10z"/>
<path d="M2883 2224 c-5 -14 11 -34 27 -34 3 0 11 4 19 9 19 12 6 41 -19 41
-11 0 -23 -7 -27 -16z"/>
<path d="M3000 2230 c0 -5 9 -10 20 -10 11 0 20 5 20 10 0 6 -9 10 -20 10 -11
0 -20 -4 -20 -10z"/>
</g>
</svg>
