<?xml version="1.0" standalone="no"?>
<!DOCTYPE svg PUBLIC "-//W3C//DTD SVG 20010904//EN"
 "http://www.w3.org/TR/2001/REC-SVG-20010904/DTD/svg10.dtd">
<svg version="1.0" xmlns="http://www.w3.org/2000/svg"
 width="500.000000pt" height="500.000000pt" viewBox="0 0 500.000000 500.000000"
 preserveAspectRatio="xMidYMid meet">

<g transform="translate(0.000000,500.000000) scale(0.100000,-0.100000)"
fill="#000000" stroke="none">
<path d="M3470 2900 l0 -50 370 0 370 0 0 -375 0 -375 50 0 50 0 0 425 0 425
-420 0 -420 0 0 -50z"/>
<path d="M875 2647 c-3 -7 -4 -131 -3 -277 l3 -265 133 -3 132 -3 0 51 0 50
-80 0 -80 0 0 65 0 64 113 3 112 3 0 45 0 45 -112 3 -113 3 0 64 0 65 80 0 80
0 0 50 0 50 -130 0 c-96 0 -132 -3 -135 -13z"/>
<path d="M1302 2651 c2 -4 50 -130 107 -280 58 -149 108 -268 112 -264 7 8
157 390 166 426 5 14 -2 17 -45 17 l-50 0 -31 -86 c-17 -47 -31 -89 -31 -95 0
-5 -4 -9 -9 -9 -4 0 -32 68 -61 150 l-54 150 -54 0 c-29 0 -52 -4 -50 -9z"/>
<path d="M1800 2380 l0 -280 130 0 130 0 0 50 0 49 -77 3 -78 3 -3 63 -3 62
116 0 115 0 0 50 0 50 -115 0 -115 0 0 65 0 65 80 0 80 0 0 50 0 50 -130 0
-130 0 0 -280z"/>
<path d="M2230 2450 l0 -210 50 0 49 0 3 114 3 115 129 -185 129 -184 48 0 49
0 0 280 0 280 -50 0 -50 0 -2 -184 -3 -184 -128 184 -129 184 -49 0 -49 0 0
-210z"/>
<path d="M2800 2615 l0 -45 165 0 165 0 0 45 0 45 -165 0 -165 0 0 -45z"/>
<path d="M3230 2611 l0 -51 109 0 c94 0 112 -3 135 -21 31 -25 34 -61 6 -89
-18 -18 -33 -20 -135 -20 l-115 0 0 -165 0 -165 50 0 50 0 0 116 0 115 31 -3
c36 -3 34 0 94 -130 l45 -98 55 0 c30 0 55 2 55 4 0 2 -25 56 -55 121 -30 64
-55 118 -55 121 0 2 6 4 13 4 7 0 28 16 47 35 30 31 34 42 38 98 4 77 -18 122
-74 151 -32 17 -62 22 -166 25 l-128 3 0 -51z"/>
<path d="M3822 2398 c-56 -145 -104 -271 -108 -280 -5 -16 1 -18 48 -18 l54 0
53 156 c30 85 57 151 61 147 4 -4 28 -69 55 -143 26 -74 50 -141 52 -147 7
-17 103 -18 103 -1 0 14 -200 530 -209 541 -4 4 -53 -111 -109 -255z"/>
<path d="M698 2238 c-2 -227 -2 -419 0 -425 3 -10 97 -13 424 -13 l419 0 -3
48 -3 47 -372 3 -373 2 0 375 0 375 -44 0 -44 0 -4 -412z"/>
<path d="M2915 2448 c-3 -8 -4 -88 -3 -178 l3 -165 53 -3 52 -3 -2 178 -3 178
-48 3 c-32 2 -49 -1 -52 -10z"/>
</g>
</svg>
