<?xml version="1.0" standalone="no"?>
<!DOCTYPE svg PUBLIC "-//W3C//DTD SVG 20010904//EN"
 "http://www.w3.org/TR/2001/REC-SVG-20010904/DTD/svg10.dtd">
<svg version="1.0" xmlns="http://www.w3.org/2000/svg"
 width="850.000000pt" height="272.000000pt" viewBox="0 0 850.000000 272.000000"
 preserveAspectRatio="xMidYMid meet">

<g transform="translate(0.000000,272.000000) scale(0.100000,-0.100000)"
fill="#000000" stroke="none">
<path d="M2320 1430 l0 -1030 30 0 30 0 0 1030 0 1030 -30 0 -30 0 0 -1030z"/>
<path d="M1075 2195 l-40 -24 90 -1 90 0 -44 25 c-23 14 -46 25 -50 25 -3 0
-24 -11 -46 -25z"/>
<path d="M691 2069 c-13 -22 -21 -42 -20 -44 2 -2 38 17 79 41 l75 44 -56 0
c-54 0 -56 -1 -78 -41z"/>
<path d="M885 2085 l-40 -24 51 -1 c37 0 64 7 95 25 l44 25 -55 0 c-41 0 -65
-6 -95 -25z"/>
<path d="M1255 2085 c30 -19 54 -25 95 -25 l55 0 -40 25 c-30 18 -54 24 -95
24 l-55 0 40 -24z"/>
<path d="M1430 2107 c3 -3 40 -26 82 -51 l77 -45 -28 47 c-27 46 -29 47 -81
50 -30 2 -52 1 -50 -1z"/>
<path d="M1088 2084 c-16 -8 -28 -17 -28 -19 0 -3 30 -5 68 -5 l67 0 -33 20
c-38 24 -39 24 -74 4z"/>
<path d="M757 1975 l-17 -36 47 27 c69 39 72 44 27 44 -36 0 -42 -4 -57 -35z"/>
<path d="M1416 1991 c18 -11 46 -26 63 -35 l30 -16 -20 35 c-19 31 -26 35 -62
35 l-42 0 31 -19z"/>
<path d="M652 1952 c-38 -24 -106 -113 -85 -112 22 1 88 60 110 98 14 23 23
42 22 41 -2 0 -23 -13 -47 -27z"/>
<path d="M1573 1929 c22 -36 107 -102 107 -83 0 23 -48 85 -80 103 -52 29 -55
27 -27 -20z"/>
<path d="M6549 1916 c-104 -28 -152 -99 -165 -243 l-7 -83 -63 0 -64 0 0 -70
0 -70 65 0 65 0 0 -270 0 -270 95 0 95 0 0 270 0 270 75 0 75 0 0 70 0 69 -72
3 -73 3 1 63 c1 80 27 111 98 119 l46 6 0 73 0 74 -62 -1 c-35 0 -84 -6 -109
-13z"/>
<path d="M7680 1420 l0 -510 95 0 95 0 0 510 0 510 -95 0 -95 0 0 -510z"/>
<path d="M1769 1798 l46 -80 3 42 c4 57 1 63 -51 92 l-45 25 47 -79z"/>
<path d="M463 1844 c-42 -25 -43 -27 -43 -80 0 -30 2 -54 4 -54 2 0 24 36 49
80 25 44 42 80 39 80 -4 -1 -26 -12 -49 -26z"/>
<path d="M2670 1390 l0 -480 280 0 280 0 0 85 0 85 -180 0 -180 0 0 110 0 110
160 0 160 0 0 90 0 90 -160 0 -161 0 3 108 3 107 178 3 177 2 0 85 0 85 -280
0 -280 0 0 -480z"/>
<path d="M5870 1740 c0 -90 -17 -125 -68 -139 -20 -6 -47 -11 -59 -11 -22 0
-23 -4 -23 -70 l0 -70 64 0 65 0 3 -202 c3 -194 4 -205 27 -246 38 -65 100
-92 213 -92 l88 0 0 70 0 70 -35 0 c-54 0 -84 19 -95 59 -5 20 -10 105 -10
189 l0 152 70 0 70 0 0 70 0 69 -67 3 -68 3 -3 108 -3 107 -84 0 -85 0 0 -70z"/>
<path d="M563 1780 c-28 -16 -33 -26 -33 -57 0 -20 2 -34 4 -32 6 7 66 109 63
109 -1 0 -17 -9 -34 -20z"/>
<path d="M1666 1769 c9 -17 24 -45 35 -63 l19 -31 0 42 c0 36 -4 43 -35 62
l-35 20 16 -30z"/>
<path d="M447 1645 c-22 -39 -27 -59 -25 -99 l3 -50 28 52 c22 40 27 62 25 99
l-3 48 -28 -50z"/>
<path d="M1770 1640 c0 -41 6 -65 25 -95 l24 -40 0 55 c0 41 -6 65 -24 95
l-25 40 0 -55z"/>
<path d="M4394 1600 c-182 -28 -296 -185 -281 -387 10 -131 76 -230 187 -281
44 -20 75 -26 155 -30 125 -5 192 17 258 83 44 44 84 111 73 123 -9 9 -166 29
-166 21 0 -3 -14 -20 -31 -37 -51 -49 -155 -60 -215 -22 -31 19 -64 73 -71
114 l-6 36 257 0 256 0 0 28 c0 55 -21 155 -41 194 -61 119 -213 183 -375 158z
m157 -146 c28 -14 78 -98 66 -110 -2 -3 -75 -3 -161 -2 l-156 3 22 44 c14 28
36 51 58 63 43 22 130 24 171 2z"/>
<path d="M5345 1604 c-5 -1 -31 -5 -58 -9 -32 -4 -62 -17 -92 -41 l-45 -34 0
35 0 35 -95 0 -95 0 0 -340 0 -340 95 0 95 0 0 218 c0 246 6 273 70 304 39 20
121 24 151 8 44 -24 49 -55 49 -300 l0 -230 100 0 100 0 0 223 c0 122 -4 249
-10 281 -13 81 -46 128 -112 159 -47 22 -126 38 -153 31z"/>
<path d="M3320 1585 c0 -5 245 -592 271 -649 12 -25 16 -26 95 -26 l82 0 77
183 c43 100 108 253 146 340 l68 158 -101 -3 -101 -3 -79 -220 c-44 -121 -83
-223 -87 -227 -4 -4 -44 96 -90 222 l-84 230 -98 0 c-55 0 -99 -2 -99 -5z"/>
<path d="M6820 1338 c0 -143 5 -269 10 -290 25 -90 117 -148 235 -148 92 0
132 12 182 55 l41 35 7 -40 7 -40 89 0 89 0 0 340 0 340 -94 0 -94 0 -4 -224
c-3 -208 -4 -227 -24 -253 -42 -57 -151 -83 -202 -47 -48 33 -52 57 -52 299
l0 225 -95 0 -95 0 0 -252z"/>
<path d="M1870 1410 l0 -105 32 53 31 54 -23 41 c-37 69 -40 66 -40 -43z"/>
<path d="M337 1456 l-24 -44 28 -48 29 -49 0 93 c0 50 -2 92 -4 92 -2 0 -15
-20 -29 -44z"/>
<path d="M454 1451 l-21 -39 23 -38 24 -39 0 78 c0 42 -1 77 -2 77 -2 0 -12
-18 -24 -39z"/>
<path d="M1770 1417 c0 -70 9 -79 29 -29 11 25 9 34 -8 63 l-21 34 0 -68z"/>
<path d="M420 1280 c0 -43 7 -66 30 -105 l30 -50 0 55 c0 43 -7 66 -30 105
l-30 50 0 -55z"/>
<path d="M1792 1277 c-17 -32 -22 -57 -20 -92 l3 -48 23 41 c17 32 22 54 20
92 l-3 50 -23 -43z"/>
<path d="M530 1105 c0 -34 5 -43 30 -57 17 -9 30 -15 30 -12 0 3 -13 28 -30
57 l-30 52 0 -40z"/>
<path d="M1696 1110 c-10 -19 -26 -46 -34 -59 l-16 -24 33 17 c37 19 44 33 39
73 l-3 28 -19 -35z"/>
<path d="M422 1066 l3 -60 48 -28 49 -28 -33 57 c-18 32 -41 72 -51 88 l-19
30 3 -59z"/>
<path d="M1774 1037 c-23 -39 -40 -73 -39 -75 2 -2 22 7 44 20 40 22 41 25 41
76 0 28 -1 52 -2 52 -2 0 -22 -33 -44 -73z"/>
<path d="M575 959 c24 -48 44 -68 89 -91 l39 -20 -23 39 c-29 47 -36 54 -83
83 l-39 23 17 -34z"/>
<path d="M1639 964 c-41 -23 -59 -45 -88 -108 -2 -5 16 3 40 17 26 16 55 44
71 71 15 26 26 46 25 46 -1 0 -23 -12 -48 -26z"/>
<path d="M1485 876 c-11 -7 -36 -23 -55 -35 l-35 -22 38 3 c30 2 42 9 58 36
23 36 23 37 -6 18z"/>
<path d="M758 850 c14 -25 23 -30 57 -30 l40 0 -52 30 c-29 17 -54 30 -57 30
-3 0 3 -13 12 -30z"/>
<path d="M688 763 l28 -48 60 -3 59 -3 -30 19 c-16 10 -56 33 -88 51 l-57 33
28 -49z"/>
<path d="M1502 765 c-39 -23 -75 -45 -79 -48 -3 -4 19 -7 49 -7 l56 0 26 47
c15 25 25 47 24 48 -2 1 -36 -17 -76 -40z"/>
<path d="M885 740 c39 -23 62 -30 105 -30 l55 0 -50 30 c-39 23 -62 30 -105
30 l-55 0 50 -30z"/>
<path d="M1084 746 l39 -23 36 20 c20 11 38 22 40 24 2 2 -31 3 -75 3 l-79 0
39 -24z"/>
<path d="M1256 742 l-49 -27 49 -3 c39 -2 60 3 97 23 26 15 47 29 47 31 0 2
-21 4 -47 4 -33 0 -63 -9 -97 -28z"/>
<path d="M1074 631 l48 -28 44 24 c24 14 44 27 44 29 0 2 -42 4 -92 4 l-93 0
49 -29z"/>
</g>
</svg>
