<?xml version="1.0" standalone="no"?>
<!DOCTYPE svg PUBLIC "-//W3C//DTD SVG 20010904//EN"
 "http://www.w3.org/TR/2001/REC-SVG-20010904/DTD/svg10.dtd">
<svg version="1.0" xmlns="http://www.w3.org/2000/svg"
 width="163.000000pt" height="163.000000pt" viewBox="0 0 163.000000 163.000000"
 preserveAspectRatio="xMidYMid meet">

<g transform="translate(0.000000,163.000000) scale(0.100000,-0.100000)"
fill="#000000" stroke="none">
<path d="M775 1595 l-40 -24 90 -1 90 0 -44 25 c-23 14 -46 25 -50 25 -3 0
-24 -11 -46 -25z"/>
<path d="M391 1469 c-13 -22 -21 -42 -20 -44 2 -2 38 17 79 41 l75 44 -56 0
c-54 0 -56 -1 -78 -41z"/>
<path d="M585 1485 l-40 -24 51 -1 c37 0 64 7 95 25 l44 25 -55 0 c-41 0 -65
-6 -95 -25z"/>
<path d="M955 1485 c30 -19 54 -25 95 -25 l55 0 -40 25 c-30 18 -54 24 -95 24
l-55 0 40 -24z"/>
<path d="M1130 1507 c3 -3 40 -26 82 -51 l77 -45 -28 47 c-27 46 -29 47 -81
50 -30 2 -52 1 -50 -1z"/>
<path d="M788 1484 c-16 -8 -28 -17 -28 -19 0 -3 30 -5 68 -5 l67 0 -33 20
c-38 24 -39 24 -74 4z"/>
<path d="M457 1375 l-17 -36 47 27 c69 39 72 44 27 44 -36 0 -42 -4 -57 -35z"/>
<path d="M1116 1391 c18 -11 46 -26 63 -35 l30 -16 -20 35 c-19 31 -26 35 -62
35 l-42 0 31 -19z"/>
<path d="M352 1352 c-38 -24 -106 -113 -85 -112 22 1 88 60 110 98 14 23 23
42 22 41 -2 0 -23 -13 -47 -27z"/>
<path d="M1273 1329 c22 -36 107 -102 107 -83 0 23 -48 85 -80 103 -52 29 -55
27 -27 -20z"/>
<path d="M1469 1198 l46 -80 3 42 c4 57 1 63 -51 92 l-45 25 47 -79z"/>
<path d="M163 1244 c-42 -25 -43 -27 -43 -80 0 -30 2 -54 4 -54 2 0 24 36 49
80 25 44 42 80 39 80 -4 -1 -26 -12 -49 -26z"/>
<path d="M263 1180 c-28 -16 -33 -26 -33 -57 0 -20 2 -34 4 -32 6 7 66 109 63
109 -1 0 -17 -9 -34 -20z"/>
<path d="M1366 1169 c9 -17 24 -45 35 -63 l19 -31 0 42 c0 36 -4 43 -35 62
l-35 20 16 -30z"/>
<path d="M147 1045 c-22 -39 -27 -59 -25 -99 l3 -50 28 52 c22 40 27 62 25 99
l-3 48 -28 -50z"/>
<path d="M1470 1040 c0 -41 6 -65 25 -95 l24 -40 0 55 c0 41 -6 65 -24 95
l-25 40 0 -55z"/>
<path d="M1570 810 l0 -105 32 53 31 54 -23 41 c-37 69 -40 66 -40 -43z"/>
<path d="M37 856 l-24 -44 28 -48 29 -49 0 93 c0 50 -2 92 -4 92 -2 0 -15 -20
-29 -44z"/>
<path d="M154 851 l-21 -39 23 -38 24 -39 0 78 c0 42 -1 77 -2 77 -2 0 -12
-18 -24 -39z"/>
<path d="M1470 817 c0 -70 9 -79 29 -29 11 25 9 34 -8 63 l-21 34 0 -68z"/>
<path d="M120 680 c0 -43 7 -66 30 -105 l30 -50 0 55 c0 43 -7 66 -30 105
l-30 50 0 -55z"/>
<path d="M1492 677 c-17 -32 -22 -57 -20 -92 l3 -48 23 41 c17 32 22 54 20 92
l-3 50 -23 -43z"/>
<path d="M230 505 c0 -34 5 -43 30 -57 17 -9 30 -15 30 -12 0 3 -13 28 -30 57
l-30 52 0 -40z"/>
<path d="M1396 510 c-10 -19 -26 -46 -34 -59 l-16 -24 33 17 c37 19 44 33 39
73 l-3 28 -19 -35z"/>
<path d="M122 466 l3 -60 48 -28 49 -28 -33 57 c-18 32 -41 72 -51 88 l-19 30
3 -59z"/>
<path d="M1474 437 c-23 -39 -40 -73 -39 -75 2 -2 22 7 44 20 40 22 41 25 41
76 0 28 -1 52 -2 52 -2 0 -22 -33 -44 -73z"/>
<path d="M275 359 c24 -48 44 -68 89 -91 l39 -20 -23 39 c-29 47 -36 54 -83
83 l-39 23 17 -34z"/>
<path d="M1339 364 c-41 -23 -59 -45 -88 -108 -2 -5 16 3 40 17 26 16 55 44
71 71 15 26 26 46 25 46 -1 0 -23 -12 -48 -26z"/>
<path d="M1185 276 c-11 -7 -36 -23 -55 -35 l-35 -22 38 3 c30 2 42 9 58 36
23 36 23 37 -6 18z"/>
<path d="M458 250 c14 -25 23 -30 57 -30 l40 0 -52 30 c-29 17 -54 30 -57 30
-3 0 3 -13 12 -30z"/>
<path d="M388 163 l28 -48 60 -3 59 -3 -30 19 c-16 10 -56 33 -88 51 l-57 33
28 -49z"/>
<path d="M1202 165 c-39 -23 -75 -45 -79 -48 -3 -4 19 -7 49 -7 l56 0 26 47
c15 25 25 47 24 48 -2 1 -36 -17 -76 -40z"/>
<path d="M585 140 c39 -23 62 -30 105 -30 l55 0 -50 30 c-39 23 -62 30 -105
30 l-55 0 50 -30z"/>
<path d="M784 146 l39 -23 36 20 c20 11 38 22 40 24 2 2 -31 3 -75 3 l-79 0
39 -24z"/>
<path d="M956 142 l-49 -27 49 -3 c39 -2 60 3 97 23 26 15 47 29 47 31 0 2
-21 4 -47 4 -33 0 -63 -9 -97 -28z"/>
<path d="M774 31 l48 -28 44 24 c24 14 44 27 44 29 0 2 -42 4 -92 4 l-93 0 49
-29z"/>
</g>
</svg>
